# xmcd
#
# Track frame offsets:
#	150
#	12525
#	22950
#	34275
#	45675
#	52200
#	63150
#	74700
#	85050
#	96525
#	110325
#	120900
#	131400
#	142875
#	153600
#	163575
#	174300
#	184575
#	192000
#	205275
#
# Disc length: 2876 seconds
#
# Revision: 1
# Processed by: cddbd v1.5.2PL0 Copyright (c) Steve Scherf et al.
# Submitted via: audiograbber 1.83.01
#
DISCID=160b3a14
DTITLE=Ron Gallager - Me And My Guitar
DYEAR=1900
DGENRE=country
TTITLE0=Back To The Rolling Plains
TTITLE1=Bridle Hanging On The Wall
TTITLE2=China Doll
TTITLE3=Click Go The Shears
TTITLE4=Crocks Christmas
TTITLE5=Henhouse Hoedown
TTITLE6=Highway Of Life
TTITLE7=Leaves In The Wind
TTITLE8=Leaving On The Train
TTITLE9=Mustre On The Great Divide
TTITLE10=My Best Friends Pony
TTITLE11=My Rodeo Day Are Gone
TTITLE12=Our Place
TTITLE13=Rain Tumbles Down In July
TTITLE14=The Rarest Flower
TTITLE15=The Wayward Wind
TTITLE16=These Hands
TTITLE17=Time For The Catlins
TTITLE18=Wild Eyed Steer
TTITLE19=With This Ring I Thee Wed
EXTD=
EXTT0=
EXTT1=
EXTT2=
EXTT3=
EXTT4=
EXTT5=
EXTT6=
EXTT7=
EXTT8=
EXTT9=
EXTT10=
EXTT11=
EXTT12=
EXTT13=
EXTT14=
EXTT15=
EXTT16=
EXTT17=
EXTT18=
EXTT19=
PLAYORDER=
